<svg width="480" height="140" viewBox="0 0 480 140" xmlns="http://www.w3.org/2000/svg">
  <g transform="translate(10,10) scale(1.4)">
    <path d="M 31.71,19.46 L 31.75,19.44 L 31.80,19.43 L 31.85,19.42 L 31.90,19.41 L 31.95,19.40 L 32.00,19.39 L 32.05,19.38 L 32.10,19.38 L 32.15,19.37 L 32.20,19.37 L 32.26,19.37 L 32.31,19.37 L 32.36,19.37 L 32.42,19.37 L 32.47,19.37 L 32.53,19.38 L 32.58,19.39 L 32.64,19.39 L 32.69,19.40 L 32.75,19.41 L 32.80,19.43 L 32.86,19.44 L 32.92,19.46 L 32.97,19.47 L 33.03,19.49 L 33.08,19.51 L 33.14,19.53 L 33.20,19.56 L 33.25,19.58 L 33.31,19.61 L 33.36,19.63 L 33.42,19.66 L 33.47,19.69 L 33.52,19.73 L 33.58,19.76 L 33.63,19.80 L 33.68,19.84 L 33.73,19.87 L 33.79,19.92 L 33.84,19.96 L 33.89,20.00 L 33.94,20.05 L 33.98,20.09 L 34.03,20.14 L 34.08,20.19 L 34.12,20.24 L 34.17,20.30 L 34.21,20.35 L 34.26,20.41 L 34.30,20.47 L 34.34,20.53 L 34.38,20.59 L 34.42,20.65 L 34.45,20.71 L 34.49,20.78 L 34.52,20.85 L 34.55,20.91 L 34.59,20.98 L 34.62,21.05 L 34.64,21.12 L 34.67,21.20 L 34.70,21.27 L 34.72,21.35 L 34.74,21.42 L 34.76,21.50 L 34.78,21.58 L 34.79,21.66 L 34.81,21.74 L 34.82,21.82 L 34.83,21.90 L 34.84,21.99 L 34.84,22.07 L 34.85,22.16 L 34.85,22.24 L 34.85,22.33 L 34.85,22.42 L 34.84,22.50 L 34.83,22.59 L 34.82,22.68 L 34.81,22.77 L 34.80,22.86 L 34.78,22.95 L 34.76,23.04 L 34.74,23.13 L 34.72,23.22 L 34.69,23.31 L 34.66,23.40 L 34.63,23.49 L 34.60,23.58 L 34.56,23.67 L 34.52,23.76 L 34.48,23.85 L 34.44,23.94 L 34.39,24.03 L 34.34,24.12 L 34.29,24.21 L 34.24,24.29 L 34.18,24.38 L 34.12,24.46 L 34.06,24.55 L 34.00,24.63 L 33.93,24.71 L 33.86,24.80 L 33.79,24.88 L 33.71,24.96 L 33.63,25.03 L 33.55,25.11 L 33.47,25.18 L 33.39,25.26 L 33.30,25.33 L 33.21,25.40 L 33.12,25.47 L 33.02,25.54 L 32.92,25.60 L 32.82,25.66 L 32.72,25.72 L 32.62,25.78 L 32.51,25.84 L 32.40,25.89 L 32.29,25.94 L 32.18,25.99 L 32.06,26.04 L 31.95,26.08 L 31.83,26.12 L 31.71,26.16 L 31.58,26.20 L 31.46,26.23 L 31.33,26.26 L 31.20,26.29 L 31.07,26.31 L 30.94,26.34 L 30.81,26.35 L 30.68,26.37 L 30.54,26.38 L 30.40,26.39 L 30.26,26.39 L 30.13,26.39 L 29.98,26.39 L 29.84,26.38 L 29.70,26.37 L 29.56,26.36 L 29.41,26.34 L 29.27,26.32 L 29.12,26.30 L 28.98,26.27 L 28.83,26.24 L 28.69,26.20 L 28.54,26.16 L 28.39,26.12 L 28.25,26.07 L 28.10,26.02 L 27.96,25.96 L 27.81,25.90 L 27.67,25.84 L 27.52,25.77 L 27.38,25.69 L 27.23,25.62 L 27.09,25.54 L 26.95,25.45 L 26.81,25.36 L 26.67,25.27 L 26.53,25.17 L 26.40,25.07 L 26.26,24.96 L 26.13,24.85 L 26.00,24.73 L 25.87,24.61 L 25.74,24.49 L 25.62,24.36 L 25.50,24.23 L 25.38,24.10 L 25.26,23.96 L 25.14,23.81 L 25.03,23.67 L 24.92,23.51 L 24.82,23.36 L 24.71,23.20 L 24.61,23.04 L 24.52,22.87 L 24.42,22.70 L 24.34,22.52 L 24.25,22.35 L 24.17,22.17 L 24.09,21.98 L 24.02,21.79 L 23.95,21.60 L 23.88,21.41 L 23.82,21.21 L 23.77,21.01 L 23.72,20.81 L 23.67,20.60 L 23.63,20.39 L 23.59,20.18 L 23.56,19.97 L 23.53,19.75 L 23.51,19.53 L 23.50,19.31 L 23.49,19.09 L 23.48,18.86 L 23.48,18.64 L 23.49,18.41 L 23.50,18.18 L 23.52,17.95 L 23.54,17.72 L 23.58,17.48 L 23.61,17.25 L 23.65,17.01 L 23.70,16.78 L 23.76,16.54 L 23.82,16.30 L 23.89,16.07 L 23.96,15.83 L 24.05,15.59 L 24.13,15.36 L 24.23,15.12 L 24.33,14.89 L 24.44,14.65 L 24.55,14.42 L 24.67,14.19 L 24.80,13.96 L 24.94,13.73 L 25.08,13.50 L 25.23,13.27 L 25.38,13.05 L 25.55,12.83 L 25.71,12.61 L 25.89,12.39 L 26.07,12.18 L 26.26,11.97 L 26.46,11.76 L 26.66,11.56 L 26.87,11.36 L 27.09,11.16 L 27.31,10.97 L 27.54,10.78 L 27.77,10.60 L 28.02,10.42 L 28.27,10.25 L 28.52,10.08 L 28.78,9.91 L 29.05,9.75 L 29.32,9.60 L 29.60,9.45 L 29.88,9.31 L 30.17,9.18 L 30.47,9.05 L 30.77,8.93 L 31.08,8.81 L 31.39,8.70 L 31.71,8.60 L 32.03,8.51 L 32.36,8.42 L 32.69,8.34 L 33.02,8.27 L 33.36,8.21 L 33.71,8.15 L 34.05,8.10 L 34.41,8.07 L 34.76,8.04 L 35.12,8.02 L 35.48,8.00 L 35.85,8.00 L 36.21,8.01 L 36.59,8.02 L 36.96,8.05 L 37.33,8.08 L 37.71,8.13 L 38.09,8.18 L 38.47,8.24 L 38.85,8.32 L 39.23,8.40 L 39.61,8.50 L 40.00,8.60 L 40.38,8.72 L 40.76,8.85 L 41.14,8.98 L 41.53,9.13 L 41.91,9.29 L 42.29,9.46 L 42.67,9.64 L 43.04,9.83 L 43.42,10.03 L 43.79,10.24 L 44.16,10.47 L 44.53,10.70 L 44.89,10.95 L 45.25,11.21 L 45.61,11.47 L 45.96,11.75 L 46.31,12.04 L 46.65,12.34 L 46.99,12.66 L 47.32,12.98 L 47.65,13.31 L 47.97,13.66 L 48.28,14.01 L 48.59,14.38 L 48.89,14.75 L 49.18,15.14 L 49.47,15.54 L 49.75,15.95 L 50.02,16.36 L 50.28,16.79 L 50.53,17.23 L 50.77,17.67 L 51.00,18.13 L 51.23,18.59 L 51.44,19.07 L 51.65,19.55 L 51.84,20.04 L 52.02,20.54 L 52.19,21.05 L 52.35,21.57 L 52.49,22.09 L 52.63,22.63 L 52.75,23.16 L 52.86,23.71 L 52.95,24.27 L 53.04,24.83 L 53.11,25.39 L 53.16,25.96 L 53.20,26.54 L 53.23,27.12 L 53.24,27.71 L 53.24,28.31 L 53.22,28.90 L 53.19,29.50 L 53.14,30.11 L 53.08,30.72 L 53.00,31.33 L 52.90,31.94 L 52.79,32.56 L 52.66,33.17 L 52.51,33.79 L 52.35,34.41 L 52.17,35.03 L 51.98,35.65 L 51.76,36.27 L 51.53,36.89 L 51.29,37.51 L 51.02,38.12 L 50.74,38.74 L 50.44,39.35 L 50.12,39.96 L 49.78,40.56 L 49.43,41.16 L 49.06,41.76 L 48.67,42.35 L 48.26,42.93 L 47.84,43.51 L 47.40,44.09 L 46.94,44.65 L 46.46,45.21 L 45.96,45.76 L 45.45,46.30 L 44.92,46.84 L 44.37,47.36 L 43.80,47.87 L 43.22,48.38 L 42.62,48.87 L 42.00,49.35 L 41.37,49.82 L 40.72,50.27 L 40.05,50.72 L 39.37,51.15 L 38.67,51.56 L 37.95,51.96 L 37.22,52.35 L 36.48,52.72 L 35.72,53.07 L 34.94,53.41 L 34.16,53.73 L 33.35,54.03 L 32.54,54.31 L 31.71,54.58 L 30.86,54.83 L 30.01,55.05 L 29.14,55.26 L 28.26,55.45 L 27.37,55.61 L 26.47,55.76 L 25.56,55.88 L 24.64,55.98 L 23.71,56.06 L 22.77,56.11 L 21.82,56.15 L 20.87,56.15 L 19.90,56.14 L 18.94,56.10 L 17.96,56.03 L 16.98,55.94 L 15.99,55.82 L 15.00,55.68 L 14.01,55.51 L 13.01,55.32 L 12.01,55.10 L 11.01,54.85 L 10.01,54.57 L 9.00,54.27 L 8.00,53.94" fill="none" stroke="#1A1A1A" stroke-width="2.4" stroke-linecap="round"/>
  </g>
  <text x="150" y="90" font-family="Arial, sans-serif" font-size="52" font-weight="700" fill="#1A1A1A" letter-spacing="1">e<tspan fill="#1A1A1A">PHI</tspan></text>
  <rect x="150" y="98" width="216" height="10" fill="#C6F135"/>
</svg>
